<?xml version="1.0" encoding="UTF-8"?>
<svg version="1.1" xmlns="http://www.w3.org/2000/svg" width="1em" height="1em" viewBox="0 0 1558 1558">
<path d="M0 0 C2.75311757 2.26657524 5.45819333 4.58691042 8.15991211 6.91430664 C19.40528532 16.58808537 30.80057965 23.42147646 45.19140625 27.30078125 C46.28630371 27.59597656 47.38120117 27.89117187 48.50927734 28.1953125 C50.70681747 28.77681739 52.90891991 29.34141869 55.11572266 29.88671875 C65.32120796 32.54777964 72.95942484 37.01810477 79.1875 45.6484375 C80.650458 48.5743535 80.63273109 50.40461097 80.1875 53.6484375 C75.00808648 59.21630703 68.56808585 61.40547341 61.1875 62.6484375 C59.03225752 62.71756009 56.87498697 62.73307798 54.71875 62.7109375 C53.43959717 62.70231689 52.16044434 62.69369629 50.8425293 62.68481445 C50.16572113 62.67858063 49.48891296 62.6723468 48.79159546 62.66592407 C6.70013907 60.59578474 6.70013907 60.59578474 -32.6875 72.3359375 C-38.74799302 78.93117991 -41.25401465 86.33144873 -41.078125 95.19921875 C-39.97465457 105.37386522 -33.23462312 113.48848297 -26.03515625 120.33984375 C-24.8125 121.6484375 -24.8125 121.6484375 -24.8125 123.6484375 C-24.25304688 123.88691406 -23.69359375 124.12539063 -23.1171875 124.37109375 C-20.29662863 125.93435265 -18.27649365 127.86424901 -15.9375 130.0859375 C-11.76446895 133.97900931 -7.45217354 137.59579087 -2.9375 141.0859375 C2.34908908 145.17438759 7.49389382 149.38934665 12.5715332 153.73413086 C15.74523928 156.44481268 18.96412244 159.07528617 22.25 161.6484375 C28.17174719 166.35128373 33.69650818 171.45776326 39.1875 176.6484375 C40.05632813 177.463125 40.92515625 178.2778125 41.8203125 179.1171875 C59.66065996 196.34235056 72.08188746 218.62966421 78.1875 242.6484375 C78.37086914 243.34710938 78.55423828 244.04578125 78.74316406 244.765625 C84.69853805 268.38558547 84.96389552 296.93044332 79.1875 320.6484375 C78.98882324 321.50856445 78.79014648 322.36869141 78.58544922 323.25488281 C75.49627015 336.41224025 71.21611517 348.56352988 65.1875 360.6484375 C64.76275391 361.50356934 64.33800781 362.35870117 63.90039062 363.23974609 C47.04637566 396.880895 23.07031311 426.55329194 -6.8125 449.6484375 C-7.91406444 450.54759792 -9.01284675 451.45017352 -10.109375 452.35546875 C-27.47703444 466.6301597 -46.2261294 478.82588648 -65.55029297 490.26977539 C-66.44119629 490.79821045 -67.33209961 491.32664551 -68.25 491.87109375 C-69.05566406 492.34554932 -69.86132812 492.82000488 -70.69140625 493.30883789 C-77.72619473 497.75173435 -81.7634709 504.70626061 -83.8125 512.6484375 C-84.13240039 516.72803151 -84.17925006 520.80798915 -84.25 524.8984375 C-85.51972065 569.55330364 -94.80242788 617.56057319 -128.1105957 649.97729492 C-168.52140125 687.89947759 -252.514646 696.37921062 -304.7878418 705.87719727 C-327.34292378 709.97609527 -349.82347041 719.1669217 -365.0625 737.2109375 C-365.64 737.89027344 -366.2175 738.56960938 -366.8125 739.26953125 C-367.4725 740.05457031 -368.1325 740.83960938 -368.8125 741.6484375 C-369.6375 742.60878906 -370.4625 743.56914063 -371.3125 744.55859375 C-378.04557909 752.41142109 -384.48829628 760.46417386 -390.8125 768.6484375 C-391.32039062 769.30328125 -391.82828125 769.958125 -392.3515625 770.6328125 C-400.17554503 780.73076039 -407.74316044 790.99140906 -415.17871094 801.37792969 C-416.81835445 803.65657354 -418.47304961 805.92347816 -420.1328125 808.1875 C-425.63130079 815.70220853 -430.99043179 823.27522037 -436.0625 831.0859375 C-436.52865723 831.80209229 -436.99481445 832.51824707 -437.47509766 833.25610352 C-439.2510022 836.02679681 -440.76750315 838.51344694 -441.8125 841.6484375 C-441.14838104 841.4400676 -440.48426208 841.23169769 -439.80001831 841.01701355 C-398.5192746 828.06762932 -357.20137041 815.24817757 -315.8125 802.6484375 C-314.58011597 802.27315918 -313.34773193 801.89788086 -312.07800293 801.51123047 C-304.84520851 799.30941888 -297.61106568 797.11211638 -290.37509155 794.92077637 C-288.1823369 794.25657563 -285.98979908 793.59165848 -283.79751587 792.92590332 C-272.3056548 789.43813723 -260.79328083 786.03093562 -249.23828125 782.7578125 C-247.6775312 782.31142426 -247.6775312 782.31142426 -246.08525085 781.85601807 C-230.35734192 777.44295219 -214.73156615 777.07339043 -199.6640625 784.12109375 C-185.46445865 792.5334641 -177.42068096 807.37260378 -168.6875 820.8359375 C-167.38653941 822.82875526 -166.08485982 824.82110382 -164.7824707 826.81298828 C-162.24684504 830.6935689 -159.71582509 834.57708537 -157.18896484 838.46337891 C-154.4291856 842.70595007 -151.653663 846.93766662 -148.86328125 851.16015625 C-129.02689275 881.22691667 -129.02689275 881.22691667 -129.8125 892.6484375 C-130.888426 896.68316001 -132.63591762 898.95315548 -135.8125 901.6484375 C-143.63693664 904.25658305 -150.59387521 903.17979805 -157.9375 899.6484375 C-163.22556772 896.8809314 -167.7921851 893.5321921 -172.140625 889.4453125 C-179.01731596 884.82063729 -187.2412204 884.17301106 -195.3125 883.6484375 C-206.97935425 882.89017814 -216.75747739 880.87890654 -225.3125 872.3984375 C-229.5840563 867.39920458 -231.37948316 861.49024008 -233.453125 855.35546875 C-235.4226377 849.52930873 -235.4226377 849.52930873 -239.8125 845.6484375 C-249.40284225 844.11740157 -258.76199505 847.9917035 -267.76953125 850.82421875 C-269.54265631 851.37055892 -271.31616901 851.91564243 -273.09004211 852.45954895 C-276.80279843 853.60067642 -280.51280713 854.75017345 -284.22076416 855.90679932 C-289.60140095 857.58495474 -294.98812238 859.24277836 -300.37646484 860.89599609 C-310.16663674 863.90309515 -319.94913523 866.93458909 -329.72912216 869.97463226 C-332.55015539 870.8515279 -335.37133984 871.72793585 -338.1925354 872.60430908 C-361.48366597 879.84123661 -384.76544125 887.10662929 -408 894.5234375 C-409.0658432 894.86192719 -410.1316864 895.20041687 -411.22982788 895.54916382 C-427.47961947 900.71655183 -442.61935141 906.86918901 -457.75439453 914.71533203 C-469.95444699 921.02411691 -481.58293831 926.30932095 -495.58203125 922.9921875 C-504.55287309 919.79520546 -512.18504966 912.97511806 -516.8125 904.6484375 C-523.03918016 890.08607032 -521.0315955 871.31081654 -515.8125 856.6484375 C-512.25293717 847.77691167 -508.07425509 839.19938976 -503.8125 830.6484375 C-503.39194336 829.79636719 -502.97138672 828.94429687 -502.53808594 828.06640625 C-495.11821511 813.14002723 -486.41317034 798.91357254 -477.8125 784.6484375 C-476.87470703 783.09092773 -476.87470703 783.09092773 -475.91796875 781.50195312 C-468.46793878 769.1463895 -460.86775246 756.89296439 -453.12451172 744.71923828 C-451.00412396 741.37254513 -448.90723346 738.01122979 -446.8125 734.6484375 C-473.77179878 743.22378892 -506.14469181 755.1606411 -527.30078125 774.31835938 C-529.71025529 776.43832297 -532.28971027 778.31236535 -534.875 780.2109375 C-541.02122669 784.77741114 -547.03257671 789.5025156 -553.0390625 794.25 C-554.77234594 795.61677417 -556.51020382 796.97746651 -558.25 798.3359375 C-566.57493908 804.84049938 -574.79571715 811.46636369 -582.97753906 818.14990234 C-584.65805128 819.52230575 -586.34037824 820.8924412 -588.0234375 822.26171875 C-589.8530533 823.75298094 -591.67420035 825.25472941 -593.484375 826.76953125 C-595.8125 828.6484375 -595.8125 828.6484375 -597.828125 829.93359375 C-603.35697674 833.6715783 -604.57590181 838.97313029 -606.55297852 845.04907227 C-612.20839741 862.28631391 -623.04248032 873.08244954 -638.8125 881.6484375 C-641.21658636 882.86221429 -643.63867742 884.03719019 -646.0625 885.2109375 C-656.86034586 890.53213507 -663.52176065 897.15323473 -670.8125 906.6484375 C-671.616875 907.67324219 -672.42125 908.69804688 -673.25 909.75390625 C-677.92149657 915.72696451 -682.40687052 921.81543483 -686.78759766 928.00415039 C-690.33957206 933.0141673 -693.97339981 937.96068257 -697.625 942.8984375 C-702.22546313 949.12164114 -706.791912 955.36696693 -711.3125 961.6484375 C-716.35251692 968.65063354 -721.45463444 975.60457086 -726.58203125 982.54296875 C-730.52665511 987.88701571 -734.43208115 993.25762299 -738.3125 998.6484375 C-745.65253533 1008.84200213 -753.11704606 1018.94245377 -760.58300781 1029.04394531 C-766.86751735 1037.54937485 -773.13269635 1046.06652371 -779.3125 1054.6484375 C-785.49351263 1063.23203019 -791.76035667 1071.75044999 -798.04638672 1080.25732422 C-800.3887763 1083.42864902 -802.72740663 1086.60273463 -805.06567383 1089.77709961 C-806.22798317 1091.35494875 -807.39057975 1092.93258635 -808.5534668 1094.51000977 C-811.52428255 1098.54001847 -814.49160827 1102.57252679 -817.453125 1106.609375 C-824.13301792 1115.70859388 -830.86772902 1124.74929734 -837.8125 1133.6484375 C-838.42738281 1134.45796875 -839.04226563 1135.2675 -839.67578125 1136.1015625 C-843.86319854 1141.51740842 -848.42371048 1146.49444104 -853.125 1151.4609375 C-859.61381556 1158.32570761 -865.96124261 1165.22758715 -871.8125 1172.6484375 C-872.29283691 1173.25671387 -872.77317383 1173.86499023 -873.26806641 1174.49169922 C-880.61560057 1183.95627899 -886.15342904 1193.74859488 -890.984375 1204.71826172 C-893.93538594 1211.31794108 -897.01299725 1217.57598145 -903.5625 1221.1484375 C-908.8053087 1221.95502345 -914.22487972 1222.5308252 -918.71875 1219.26171875 C-926.64804803 1210.61334222 -926.13548191 1197.56252867 -926.02734375 1186.484375 C-925.03218084 1168.71619361 -919.15694005 1152.77207917 -911.29077148 1136.96777344 C-905.61719118 1125.50075613 -904.77119831 1116.86450068 -907.8125 1104.5859375 C-910.33082817 1093.52495946 -912.20478492 1082.12381668 -906.8125 1071.6484375 C-905.05078125 1069.35546875 -905.05078125 1069.35546875 -903.125 1067.4609375 C-902.50238281 1066.82800781 -901.87976563 1066.19507813 -901.23828125 1065.54296875 C-895.12022894 1060.76477975 -888.73666416 1058.90894168 -881.1875 1057.5859375 C-879.41401952 1057.24892401 -877.64058218 1056.91168342 -875.8671875 1056.57421875 C-873.48599205 1056.13459288 -871.10425579 1055.69996786 -868.71972656 1055.27880859 C-853.33371683 1052.54571535 -841.33199137 1046.46277705 -832.14916992 1033.60083008 C-831.64619385 1032.87404053 -831.14321777 1032.14725098 -830.625 1031.3984375 C-830.07239502 1030.61686279 -829.51979004 1029.83528809 -828.95043945 1029.0300293 C-827.22418852 1026.57866007 -825.51528749 1024.1161529 -823.8125 1021.6484375 C-823.02117676 1020.50205811 -823.02117676 1020.50205811 -822.21386719 1019.33251953 C-819.54661087 1015.45809262 -816.89516544 1011.57312676 -814.25 1007.68359375 C-810.53603801 1002.23005849 -806.7713623 996.8123808 -803 991.3984375 C-802.32864014 990.43462158 -801.65728027 989.47080566 -800.96557617 988.4777832 C-799.59752054 986.51435341 -798.22927426 984.55105644 -796.86083984 982.58789062 C-793.50831649 977.77687975 -790.1606439 972.96249666 -786.8125 968.1484375 C-785.4817851 966.23566716 -784.15105592 964.32290675 -782.8203125 962.41015625 C-780.12680219 958.53831742 -777.43418513 954.66585945 -774.7421875 950.79296875 C-765.55645716 937.5795131 -756.33946847 924.38834623 -747.10351562 911.20996094 C-744.22426904 907.10120712 -741.34676037 902.99125918 -738.47265625 898.87890625 C-735.86373687 895.14647413 -733.24427027 891.42164259 -730.62109375 887.69921875 C-729.20558876 885.68239021 -727.79022152 883.66546497 -726.375 881.6484375 C-725.39974365 880.27014771 -725.39974365 880.27014771 -724.40478516 878.86401367 C-717.71791407 869.311218 -711.64054289 860.0813512 -708.6875 848.7109375 C-708.1946123 846.97044306 -707.6985141 845.23085462 -707.19921875 843.4921875 C-706.96380371 842.66203125 -706.72838867 841.831875 -706.48583984 840.9765625 C-701.29670121 823.03471116 -690.87167297 807.83579426 -674.51635742 798.3112793 C-672.08328798 797.00807322 -669.63746753 795.73206426 -667.1875 794.4609375 C-658.85349731 790.00662289 -651.52746059 785.02765303 -644.328125 778.92871094 C-642.00068033 776.96268003 -639.62031665 775.06240008 -637.25 773.1484375 C-627.87034843 765.42562949 -618.64174723 757.53037566 -609.47412109 749.55786133 C-606.39737522 746.88320367 -603.3140854 744.21755095 -600.20703125 741.578125 C-592.78944669 735.27594359 -585.56010893 728.81481858 -578.44775391 722.17041016 C-576.18726659 720.06651676 -573.91005412 717.9810786 -571.63378906 715.89428711 C-569.01653145 713.4898606 -566.4142397 711.06964832 -563.8125 708.6484375 C-563.12285156 708.01421875 -562.43320312 707.38 -561.72265625 706.7265625 C-556.80703645 702.04501983 -551.91251243 696.70207289 -548.8125 690.6484375 C-548.60403012 687.52946472 -548.60403012 687.52946472 -549.8125 684.6484375 C-558.96696139 676.37052002 -572.01775102 674.0409246 -583.63885498 670.94326782 C-646.72236959 654.0589396 -646.72236959 654.0589396 -673.8125 640.6484375 C-675.13580322 639.9972998 -675.13580322 639.9972998 -676.48583984 639.33300781 C-687.0853924 634.06365293 -697.09477996 628.40923661 -706.8125 621.6484375 C-728.20249424 607.55197341 -756.60825299 607.70012623 -781.18969727 612.75073242 C-783.74610048 613.33449328 -786.27867977 613.97363548 -788.8125 614.6484375 C-789.66634277 614.8738623 -790.52018555 615.09928711 -791.39990234 615.33154297 C-810.78907217 620.67090493 -828.1444817 630.17047959 -844.56982422 641.61523438 C-856.08767651 649.47131124 -869.84600588 653.50042525 -883.8125 651.6484375 C-888.66996594 649.85830486 -893.04387387 647.49981459 -897.53125 644.93603516 C-899.95606362 643.56740641 -902.40939528 642.26626324 -904.875 640.97265625 C-923.91878424 630.91633245 -942.92005757 620.31482542 -958.8125 605.6484375 C-960.15634766 604.51535156 -960.15634766 604.51535156 -961.52734375 603.359375 C-972.32673633 594.16771154 -979.36001119 584.12857696 -980.66772461 569.81225586 C-982.75782129 538.5735933 -968.9599051 507.0219577 -948.8125 483.6484375 C-903.09156164 432.70651107 -822.33400274 432.92420867 -759.27693176 428.33885193 C-704.70381224 424.3700969 -648.96109392 419.837037 -599.8125 393.6484375 C-598.719375 393.06852051 -597.62625 392.48860352 -596.5 391.89111328 C-586.64235249 386.66007032 -576.80057901 381.39916236 -566.96777344 376.12158203 C-523.11594299 352.60695616 -476.50061406 334.24147282 -427.8125 323.6484375 C-426.68924316 323.40303223 -425.56598633 323.15762695 -424.40869141 322.90478516 C-391.72111657 315.90618601 -358.58682968 312.52420767 -325.1875 312.3984375 C-324.39633789 312.39307983 -323.60517578 312.38772217 -322.79003906 312.38220215 C-307.284053 312.30228271 -292.36350342 313.68522174 -277.25 317.3359375 C-276.13544434 317.60156494 -275.02088867 317.86719238 -273.87255859 318.14086914 C-231.94833632 328.30566676 -191.37905956 344.01814758 -151.01318359 359.06347656 C-110.98920625 373.96378447 -63.20208724 386.91669111 -21.7265625 368.92578125 C-13.08658078 364.95715302 -5.83370161 360.11062624 1.1875 353.6484375 C1.97640625 352.98585938 2.7653125 352.32328125 3.578125 351.640625 C19.65711757 337.25703641 28.46934311 307.18686535 30.09375 286.19140625 C30.1246875 285.35222656 30.155625 284.51304687 30.1875 283.6484375 C30.21328125 283.0292041 30.2390625 282.4099707 30.265625 281.77197266 C31.14610213 257.70743212 24.80266109 239.80102362 8.36328125 222.0078125 C6.48134025 219.96707217 4.67142339 217.88893366 2.875 215.7734375 C-4.38154912 207.4778444 -12.20837823 199.91520676 -20.83203125 193.05859375 C-25.00728387 189.68227544 -29.03722315 186.14644952 -33.0715332 182.60375977 C-36.61553812 179.50598994 -40.22312569 176.52528507 -43.90625 173.59375 C-50.30495916 168.37421271 -56.1659912 162.66712964 -62.00097656 156.83056641 C-63.79986963 155.03603723 -65.61418321 153.25817049 -67.4296875 151.48046875 C-77.69429832 141.31625941 -87.09703498 130.19472606 -93.625 117.2109375 C-93.98553467 116.50686768 -94.34606934 115.80279785 -94.7175293 115.07739258 C-103.06082411 98.41498642 -108.10358207 80.34614788 -108.8125 61.6484375 C-108.8640625 60.76027344 -108.915625 59.87210937 -108.96875 58.95703125 C-109.72386405 35.8316635 -102.01956992 11.10690736 -86.3046875 -5.9921875 C-61.71008065 -29.47447545 -23.45395767 -18.90286733 0 0 Z " fill="#FFFFFF" transform="translate(1170.8125,181.3515625)"/>
</svg>
